<svg xmlns="http://www.w3.org/2000/svg" xmlns:xlink="http://www.w3.org/1999/xlink" fill="none" version="1.1" width="20"
     height="20" viewBox="0 0 20 20">
  <defs>
    <clipPath id="master_svg0_10_18308">
      <rect x="0" y="0" width="20" height="20" rx="0"/>
    </clipPath>
  </defs>
  <g clip-path="url(#master_svg0_10_18308)">
    <g>
      <path
        d="M2.2765036850198364,6.72675285056305C1.4634152650198364,6.38315455056305,1.4634553150198364,5.191172250563049,2.276565675019836,4.847633050563049L9.627236475019837,1.7419716115630492C9.864824375019836,1.6415911915630492,10.130960575019836,1.6416622395630494,10.368497975019837,1.7421704535630493L17.713712575019837,4.85013635056305C18.526357575019837,5.193988450563049,18.526184575019837,6.38540325056305,17.713438575019836,6.72900065056305L10.369773975019836,9.83362635056305C10.132280475019837,9.934028250563049,9.866231075019837,9.934050250563049,9.628723775019836,9.83368265056305L2.2765036850198364,6.72675285056305ZM2.640263145019836,8.90868195056305L9.633606575019837,11.86395585056305C9.871113875019837,11.96432385056305,10.137163275019837,11.96430185056305,10.374656775019837,11.86389985056305L17.360811575019838,8.91041575056305L17.719755575019835,9.06229465056305C18.532400575019835,9.406146650563048,18.532226575019838,10.597561450563049,17.719480575019837,10.941158850563049L10.375816475019837,14.045784850563049C10.138322975019836,14.14618685056305,9.872273575019836,14.146208850563049,9.634766175019838,14.04584085056305L2.2825461650198364,10.93891105056305C1.4694577450198365,10.59531275056305,1.4694977950198365,9.40333045056305,2.2826081550198363,9.059791250563048L2.640263145019836,8.90868195056305ZM2.6451929250198365,13.120458850563049L9.640015275019836,16.07635885056305C9.877522575019837,16.17672585056305,10.143571975019837,16.17670385056305,10.381065475019836,16.07630185056305L17.366318575019836,13.12319885056305L17.723783575019837,13.27445285056305C18.536428575019837,13.61830485056305,18.536254575019836,14.809719850563049,17.723508575019835,15.15331685056305L10.379844775019837,18.25794285056305C10.142351275019836,18.35834385056305,9.876301875019836,18.358366850563048,9.638794575019837,18.25799785056305L2.2865744850198366,15.15106885056305C1.4734860650198365,14.80747085056305,1.4735261250198364,13.615488850563048,2.2866364750198365,13.271949850563049L2.6451929250198365,13.120458850563049Z"
        fill-rule="evenodd" fill="#77869E" fill-opacity="1"/>
    </g>
  </g>
</svg>