<svg xmlns="http://www.w3.org/2000/svg" xmlns:xlink="http://www.w3.org/1999/xlink" fill="none" version="1.1" width="20"
     height="20" viewBox="0 0 20 20">
  <defs>
    <clipPath id="master_svg0_16_03257">
      <rect x="0" y="0" width="20" height="20" rx="0"/>
    </clipPath>
  </defs>
  <g clip-path="url(#master_svg0_16_03257)">
    <g>
      <path
        d="M1.66668701171875,4.166748246875001L1.66668701171875,11.666748046875C1.66668701171875,13.047460046875,2.7859752117187497,14.166748046875,4.166687211718751,14.166748046875L15.83335301171875,14.166748046875C17.21406601171875,14.166748046875,18.33335301171875,13.047460046875,18.33335301171875,11.666748046875L18.33335301171875,4.166748246875001C18.33335301171875,2.7860362468749997,17.21406601171875,1.666748046875,15.83335301171875,1.666748046875L4.166687211718751,1.666748046875C2.7859752117187497,1.666748046875,1.66668701171875,2.7860362468749997,1.66668701171875,4.166748246875001ZM14.44339601171875,6.295664346875C14.53465501171875,6.158774846875,14.58335301171875,5.997935246875,14.58335301171875,5.833414546875C14.58335301171875,5.3731772468750005,14.21025801171875,5.000081346875,13.75002001171875,5.000081346875C13.47139301171875,5.000081346875,13.21120001171875,5.1393320468749994,13.05664401171875,5.371164346875L11.17572211171875,8.192548746875L9.80687041171875,6.549927746875C9.512234711718751,6.196363446875,8.986764411718749,6.148593446875,8.63319971171875,6.443230146875C8.58351751171875,6.484632446875,8.538823611718751,6.531677246875,8.50002001171875,6.583414546875L6.00017021171875,9.916547746875C5.89183521171875,10.060995146875,5.83335351171875,10.236439746875,5.83335351171875,10.416748046875C5.83335351171875,10.876984546875,6.20644951171875,11.250081046875,6.66668701171875,11.250081046875C6.92898461171875,11.250081046875,7.17597531171875,11.126585946875,7.33335351171875,10.916748046875L9.20110031171875,8.426418346875L10.60983561171875,10.116901446875C10.66114811171875,10.178477246875,10.72107701171875,10.232327446875,10.78776931171875,10.276789646875C11.17071061171875,10.532083546875,11.68810201171875,10.428605046875,11.94339601171875,10.045664746875L14.44339601171875,6.295664346875ZM2.91668701171875,15.833252046875Q2.8552785117187502,15.833253046875,2.79416561171875,15.839271046875Q2.73305271171875,15.845291046875,2.67282401171875,15.857270046875Q2.6125954417187502,15.869251046875,2.55383116171875,15.887077046875Q2.49506682171875,15.904902046875,2.43833268171875,15.928401046875Q2.38159859171875,15.951902046875,2.3274410917187502,15.980850046875Q2.27328360171875,16.009798046874998,2.22222417171875,16.043913046874998Q2.1711648717187497,16.078031046874997,2.12369537171875,16.116989046875Q2.07622593171875,16.155946046875002,2.03280350171875,16.199367046875Q1.98938113171875,16.242790046875,1.95042392171875,16.290258046875Q1.91146675171875,16.337728046875,1.87734996171875,16.388786046874998Q1.84323320171875,16.439846046874997,1.81428541171875,16.494004046875Q1.78533762171875,16.548162046875,1.76183757971875,16.604896046874998Q1.73833754671875,16.661631046875,1.72051158571875,16.720395046874998Q1.70268562471875,16.779159046875,1.69070540771875,16.839387046875Q1.67872519371875,16.899616046875,1.67270610291875,16.960731046875Q1.66668701171875,17.021843046875,1.66668701171875,17.083252046875Q1.66668701171875,17.144661046875,1.67270610291875,17.205772046874998Q1.67872519371875,17.266886046875,1.69070540771875,17.327112046875Q1.70268562471875,17.387341046875,1.72051158571875,17.446106046875002Q1.73833754671875,17.504870046875,1.76183757971875,17.561603046875Q1.78533762171875,17.618339046875,1.81428541171875,17.672497046875Q1.84323320171875,17.726654046875,1.87734996171875,17.777712046875Q1.91146675171875,17.828773046875,1.95042392171875,17.876244046875Q1.98938113171875,17.923714046875,2.03280350171875,17.967134046875Q2.07622593171875,18.010557046875,2.12369540171875,18.049515046875Q2.1711648717187497,18.088470046875,2.22222417171875,18.122587046875Q2.27328360171875,18.156704046875,2.3274410917187502,18.185652046875Q2.38159859171875,18.214600046875,2.43833262171875,18.238098046875Q2.49506676171875,18.261600046875,2.55383116171875,18.279425046875Q2.61259556171875,18.297253046875,2.67282411171875,18.309231046875Q2.73305271171875,18.321213046875,2.79416561171875,18.327232046875Q2.8552785117187502,18.333252046875,2.91668701171875,18.333252046875L17.08335301171875,18.333252046875Q17.14476201171875,18.333252046875,17.20587401171875,18.327232046875Q17.26698701171875,18.321213046875,17.32721301171875,18.309231046875Q17.38744401171875,18.297253046875,17.446207011718748,18.279425046875Q17.50497101171875,18.261600046875,17.56170501171875,18.238098046875Q17.61844001171875,18.214600046875,17.67259801171875,18.185654046875Q17.72675701171875,18.156704046875,17.77781501171875,18.122587046875Q17.82887601171875,18.088470046875,17.87634501171875,18.049515046875Q17.92381301171875,18.010557046875,17.96723601171875,17.967134046875Q18.01065801171875,17.923714046875,18.04961801171875,17.876244046875Q18.08857301171875,17.828773046875,18.12269001171875,17.777712046875Q18.15680701171875,17.726654046875,18.18575501171875,17.672497046875Q18.21470301171875,17.618339046875,18.23820101171875,17.561603046875Q18.26170201171875,17.504870046875,18.27952801171875,17.446107046875Q18.29735401171875,17.387342046875,18.30933401171875,17.327113046875Q18.32131401171875,17.266886046875,18.32733301171875,17.205773046875002Q18.33335301171875,17.144661046875,18.33335301171875,17.083252046875Q18.33335301171875,17.021843046875,18.32733301171875,16.960731046875Q18.32131401171875,16.899617046875,18.30933401171875,16.839388046875Q18.29735401171875,16.779159046875,18.27952801171875,16.720395046874998Q18.26170201171875,16.661631046875,18.23820101171875,16.604896046874998Q18.21470301171875,16.548162046875,18.18575501171875,16.494003046875Q18.15680701171875,16.439846046874997,18.12268801171875,16.388786046874998Q18.08857301171875,16.337728046875,18.04961601171875,16.290258046875Q18.01065801171875,16.242790046875,17.96723601171875,16.199367046875Q17.92381301171875,16.155946046875002,17.87634501171875,16.116989046875Q17.82887601171875,16.078031046874997,17.77781501171875,16.043914046875003Q17.72675701171875,16.009798046874998,17.67260001171875,15.980850046875Q17.61844101171875,15.951902046875,17.561706011718748,15.928401046875Q17.50497201171875,15.904902046875,17.44620901171875,15.887076046875Q17.38744401171875,15.869251046875,17.327214011718752,15.857269046875Q17.26698701171875,15.845291046875,17.20587301171875,15.839271046875Q17.14476201171875,15.833253046875,17.08335301171875,15.833252046875L2.91668701171875,15.833252046875Z"
        fill-rule="evenodd" fill="currentColor" fill-opacity="1"/>
    </g>
  </g>
</svg>